<svg height="512" width="512" xmlns="http://www.w3.org/2000/svg"><path d="M173.464 249.872c0 20.234 16.403 36.637 36.637 36.637h213.235c20.234 0 36.637-16.403 36.637-36.637V36.637C459.973 16.403 443.57 0 423.336 0H210.101c-20.234 0-36.637 16.403-36.637 36.637z" fill="#e7889d"/><path d="M458.459 194.585h-124.14v-5.695c0-37.243-30.299-67.543-67.543-67.543h-93.312v128.525c0 20.234 16.403 36.637 36.637 36.637h213.235c20.234 0 36.637-16.403 36.637-36.637v-55.249c-.505-.011-1.007-.038-1.514-.038z" fill="#e16e7e"/><path d="M16.904 402.125c0 20.234 16.403 36.637 36.637 36.637h213.235c20.234 0 36.637-16.403 36.637-36.637V188.89c0-20.234-16.403-36.637-36.637-36.637H53.541c-20.234 0-36.637 16.403-36.637 36.637z" fill="#88d37f"/><path d="M245.224 194.585c-37.243 0-67.543 30.299-67.543 67.543v176.634h89.094c20.234 0 36.637-16.403 36.637-36.637v-207.54z" fill="#5ec682"/><path d="M149.752 386.734c-11.297 0-21.264-5.255-27.164-14.503-8.313-13.029-7.295-30.834 2.722-47.628 10.592-17.758 10.774-33.757.462-40.759-9.85-6.69-27.852-3.994-41.813 14.173a7.5 7.5 0 01-11.893-9.141c8.696-11.315 19.503-18.904 31.253-21.945 11.16-2.887 22.414-1.246 30.88 4.503 13.228 8.983 22.211 30.31 3.993 60.853-6.943 11.64-8.076 23.854-2.958 31.875 3.546 5.559 9.517 8.204 16.819 7.451 8.495-.876 38.318-9.296 65.426-80.825a7.5 7.5 0 1114.026 5.316c-29.328 77.389-64.257 89.022-77.913 90.431a37.567 37.567 0 01-3.84.199zm-15.551-157.797H72.974a7.5 7.5 0 010-15h61.227a7.5 7.5 0 010 15z" fill="#4e5660"/><path d="M245.224 512h147.478c56.551 0 102.394-45.844 102.394-102.394V262.128c0-20.234-16.403-36.637-36.637-36.637H245.224c-20.234 0-36.637 16.403-36.637 36.637v213.235c0 20.234 16.403 36.637 36.637 36.637z" fill="#f6ee86"/><path d="M392.702 512c56.551 0 102.394-45.844 102.394-102.394v-40.861c0 41.768-23.121 56.591-50.022 56.592-20.201.001-36.64 16.44-36.641 36.641C408.432 488.879 393.61 512 351.842 512z" fill="#f2d98d"/><path d="M431.104 316.009H272.58a7.5 7.5 0 010-15h158.524a7.5 7.5 0 010 15zm0 66.968H272.58a7.5 7.5 0 010-15h158.524a7.5 7.5 0 010 15z" fill="#4e5660"/><g fill="#fff"><ellipse cx="235.976" cy="119.53" rx="29.792" ry="23.725"/><ellipse cx="397.46" cy="119.53" rx="29.792" ry="23.725"/></g><path d="M267.52 101.212a7.5 7.5 0 01-7.5-7.5c0-3.684-2.997-6.681-6.681-6.681s-6.681 2.997-6.681 6.681a7.5 7.5 0 01-15 0c0-11.955 9.726-21.681 21.681-21.681s21.681 9.726 21.681 21.681a7.5 7.5 0 01-7.5 7.5zm126.758 0a7.5 7.5 0 01-7.5-7.5c0-3.684-2.997-6.681-6.681-6.681s-6.68 2.997-6.68 6.681a7.5 7.5 0 01-15 0c0-11.955 9.726-21.681 21.68-21.681 11.955 0 21.681 9.726 21.681 21.681a7.5 7.5 0 01-7.5 7.5zm-77.56 23.427a27.45 27.45 0 01-20.696-9.425 7.5 7.5 0 0111.309-9.855 12.453 12.453 0 009.388 4.28c3.595 0 7.017-1.56 9.388-4.28a7.5 7.5 0 0110.582-.726 7.5 7.5 0 01.726 10.582 27.456 27.456 0 01-20.697 9.424z" fill="#4e5660"/></svg>